<?xml version="1.0" standalone="no"?>
<!DOCTYPE svg PUBLIC "-//W3C//DTD SVG 20010904//EN"
 "http://www.w3.org/TR/2001/REC-SVG-20010904/DTD/svg10.dtd">
<svg version="1.0" xmlns="http://www.w3.org/2000/svg"
 width="512.000000pt" height="512.000000pt" viewBox="0 0 512.000000 512.000000"
 preserveAspectRatio="xMidYMid meet">
<metadata>
Created by potrace 1.11, written by Peter Selinger 2001-2013
</metadata>
<g transform="translate(0.000000,512.000000) scale(0.100000,-0.100000)"
fill="#000000" stroke="none">
<path d="M4510 5106 c-31 -6 -87 -27 -125 -46 -65 -32 -123 -87 -797 -760
l-728 -726 350 -350 c193 -192 352 -350 354 -352 2 -2 332 324 733 725 618
618 733 737 759 788 143 277 13 607 -277 705 -76 26 -192 33 -269 16z"/>
<path d="M1145 5090 c-33 -4 -70 -13 -83 -21 -28 -17 -63 -87 -57 -114 2 -11
4 -26 4 -34 1 -7 126 -139 278 -292 281 -281 323 -333 357 -435 24 -75 27 -92
27 -170 0 -138 -46 -256 -135 -346 -98 -97 -204 -140 -351 -141 -190 -2 -250
35 -573 353 -333 329 -314 313 -375 307 -62 -5 -102 -42 -116 -107 -10 -44 -8
-310 3 -360 56 -260 162 -456 346 -640 177 -178 382 -288 620 -334 99 -20 327
-15 435 9 89 19 156 16 207 -11 18 -9 592 -576 1275 -1259 1139 -1139 1249
-1245 1313 -1279 84 -45 172 -65 258 -60 84 5 134 19 213 61 256 133 340 471
179 714 -16 25 -545 560 -1175 1189 -1409 1407 -1326 1324 -1348 1365 -24 47
-26 87 -10 164 25 117 27 144 27 276 -1 196 -36 348 -121 520 -62 124 -121
204 -227 311 -178 177 -400 291 -641 329 -60 10 -262 13 -330 5z"/>
<path d="M1547 2253 c-48 -49 -96 -102 -106 -119 -51 -85 -46 -186 15 -274 19
-27 34 -53 34 -57 0 -16 -524 -522 -557 -538 -28 -14 -54 -16 -127 -12 -67 4
-99 2 -122 -9 -18 -9 -77 -73 -145 -157 -62 -78 -116 -144 -119 -147 -25 -22
-391 -482 -403 -506 -18 -34 -15 -85 6 -118 8 -11 78 -85 156 -162 143 -144
169 -161 226 -149 11 2 23 4 27 4 7 1 256 197 268 211 3 3 122 101 265 217
143 116 267 221 275 234 10 17 14 58 15 140 1 109 3 119 27 151 31 41 495 505
517 518 11 6 25 2 46 -14 59 -45 98 -59 165 -59 87 -1 127 21 245 136 l95 92
-352 352 c-194 194 -355 353 -359 353 -3 0 -45 -39 -92 -87z"/>
</g>
</svg>
